<svg id="Ebene_1" data-name="Ebene 1" xmlns="http://www.w3.org/2000/svg" viewBox="0 0 393.308 102"><defs><style>.cls-1{fill:#1d1d1b;}.cls-2{fill:#e30613;}</style></defs><title>Zeichenfläche 1</title><path class="cls-1" d="M92.459,27.551a24.633,24.633,0,0,0-7.152-2.828,38.347,38.347,0,0,0-8.852-.974,39.488,39.488,0,0,0-9.006.974,24.636,24.636,0,0,0-7.207,2.828,14.82,14.82,0,0,0-4.785,4.517,10.651,10.651,0,0,0-1.75,5.956v61H71.268V70.066H81.54V99.023H98.994v-61a10.62,10.62,0,0,0-1.75-5.956,14.749,14.749,0,0,0-4.785-4.517M81.54,60.616H71.268V37.631q0-4.64,5.135-4.64t5.137,4.64Zm310.017-28.8a13.4,13.4,0,0,0-4.788-4.724,21.831,21.831,0,0,0-7.152-2.57,48.169,48.169,0,0,0-8.85-.769,49.684,49.684,0,0,0-9.008.769,22.688,22.688,0,0,0-7.2,2.517,12.937,12.937,0,0,0-4.787,4.726,14.158,14.158,0,0,0-1.748,7.289V85.982a14.165,14.165,0,0,0,1.748,7.29A12.914,12.914,0,0,0,354.556,98a22.59,22.59,0,0,0,7.2,2.517,49.777,49.777,0,0,0,9.008.768,48.259,48.259,0,0,0,8.85-.768,21.784,21.784,0,0,0,7.152-2.568,13.427,13.427,0,0,0,4.788-4.722,14.11,14.11,0,0,0,1.751-7.345V39.152a14.089,14.089,0,0,0-1.751-7.34M375.851,87.419q0,4.62-5.137,4.622t-5.132-4.622V37.613q0-4.618,5.132-4.622t5.137,4.622ZM336.265,65.494q-3.135-2.465-9.81-3.082,6.674-.516,9.55-3.335t2.878-8.05V39.13a15.186,15.186,0,0,0-1.592-7.33,12.656,12.656,0,0,0-4.467-4.718,20.1,20.1,0,0,0-6.777-2.564,44.777,44.777,0,0,0-8.629-.769,49.448,49.448,0,0,0-8.987.769,22.534,22.534,0,0,0-7.185,2.517,12.865,12.865,0,0,0-4.777,4.726,14.2,14.2,0,0,0-1.747,7.289V99.023h17.562V66.776h3.8q6.466,0,6.47,6.983V99.023H339.4V72.282a8.174,8.174,0,0,0-3.13-6.788M322.556,51.911q0,3.587-1.7,5.066a7.017,7.017,0,0,1-4.773,1.484h-3.8V37.6q0-4.6,5.134-4.6t5.138,4.6ZM41.541,65.494q-3.133-2.465-9.808-3.082,6.678-.516,9.55-3.335t2.876-8.05V39.13a15.209,15.209,0,0,0-1.59-7.33A12.617,12.617,0,0,0,38.1,27.082a20.071,20.071,0,0,0-6.777-2.564,44.766,44.766,0,0,0-8.628-.769,49.448,49.448,0,0,0-8.987.769,22.549,22.549,0,0,0-7.186,2.517,12.87,12.87,0,0,0-4.776,4.726A14.19,14.19,0,0,0,0,39.05V99.023H17.562V66.776h3.8q6.468,0,6.469,6.983V99.023H44.673V72.282a8.175,8.175,0,0,0-3.132-6.788M27.832,51.911q0,3.587-1.7,5.066a7.014,7.014,0,0,1-4.773,1.484h-3.8V37.6q0-4.6,5.135-4.6t5.135,4.6Zm188.13,47.112h17.456V36.259H215.962ZM280.81,27.088a19.415,19.415,0,0,0-6.726-2.57,44.715,44.715,0,0,0-8.626-.769,49.416,49.416,0,0,0-8.987.769,22.519,22.519,0,0,0-7.184,2.517,12.887,12.887,0,0,0-4.777,4.726,14.158,14.158,0,0,0-1.743,7.289V85.982a14.164,14.164,0,0,0,1.743,7.29A12.865,12.865,0,0,0,249.287,98a22.422,22.422,0,0,0,7.184,2.517,49.508,49.508,0,0,0,8.987.768,44.8,44.8,0,0,0,8.626-.768,19.374,19.374,0,0,0,6.726-2.568,12.27,12.27,0,0,0,4.365-4.722,15.68,15.68,0,0,0,1.543-7.345v-15.3H270.592v16.84q0,4.62-5.134,4.622t-5.134-4.622V37.613q0-4.618,5.134-4.622t5.134,4.622v15.3h16.126V39.152a15.656,15.656,0,0,0-1.543-7.34,12.247,12.247,0,0,0-4.365-4.724m-81.18.2a22.963,22.963,0,0,0-6.928-2.669,38.9,38.9,0,0,0-8.372-.873,25.035,25.035,0,0,0-14.579,4.108q-5.448-4.11-14.277-4.108a39.567,39.567,0,0,0-8.419.873,24.275,24.275,0,0,0-7.086,2.669,14.209,14.209,0,0,0-4.876,4.571,11.793,11.793,0,0,0-1.8,6.571v60.59h17.559v-61q0-4.624,5.135-4.62a5.664,5.664,0,0,1,3.338,1.13,3.4,3.4,0,0,1,1.591,2.873V99.023h17.561V38.433q0-5.026,5.031-5.029,5.241,0,5.239,4.62v61H206.2V38.433a11.806,11.806,0,0,0-1.795-6.571,14.542,14.542,0,0,0-4.777-4.571M109.273,72.347H122.85V58.772H109.273Z"/><path class="cls-2" d="M214.506,24.556V28.47l10.1,5.048,15.643-7.826V21.781l-15.643,7.825Zm37.478-10.862L224.605,0,197.226,13.694l11.732,5.868V35.213l3.913,1.957V21.518l11.734,5.87Zm-27.379-1.957-11.734,5.87-7.825-3.913,19.559-9.782,19.554,9.782-19.554,9.783-7.824-3.915,11.735-5.868Z"/></svg>